<svg width="65" height="80" viewBox="0 0 65 80" fill="none" xmlns="http://www.w3.org/2000/svg">
<path d="M32.17 35.2C31.9 35.2 31.54 35.12 31.09 34.98C30.64 34.83 30.19 34.64 29.75 34.4C29.21 34.12 28.79 33.84 28.47 33.56C28.15 33.28 28 32.97 28 32.63C28 32.17 28.17 31.81 28.51 31.53C28.85 31.25 29.26 31.12 29.75 31.12C30.21 31.12 30.69 31.34 31.21 31.78C31.72 32.22 32.17 32.82 32.55 33.58L32.15 33.79C32.7 32.81 33.26 32.1 33.82 31.66C34.38 31.22 34.87 31 35.28 31C35.64 31 35.94 31.11 36.17 31.34C36.4 31.57 36.51 31.85 36.51 32.18C36.51 32.54 36.34 32.88 36.01 33.2C35.68 33.52 35.25 33.85 34.73 34.19C34.27 34.47 33.82 34.71 33.37 34.91C32.92 35.11 32.52 35.21 32.17 35.21V35.2Z" fill="#1E021E"/>
<path d="M63.21 46.89C62.39 41.39 61.28 36.13 59.89 31.1C58.5 26.07 57.02 21.56 55.45 17.56C52.81 11.07 49.69 6.52 46.08 3.91C42.48 1.31 38.53 0 34.25 0C31.39 0 28.7 0.540001 26.17 1.61C23.64 2.68 21.21 4.52 18.89 7.12C16.57 9.73 14.3 13.38 12.09 18.09C10.38 21.8 8.79 25.8 7.33 30.08C5.87 34.36 4.58001 38.64 3.48001 42.93C2.37001 47.21 1.52 51.25 0.910004 55.03C0.300004 58.81 0 62.06 0 64.77C0 70.48 0.950012 74.42 2.84001 76.6C4.73001 78.78 7.46001 79.87 11.03 79.87C13.88 79.87 16.26 79.33 18.15 78.26C20.04 77.19 21.54 75.58 22.65 73.44C23.76 71.3 24.52 68.66 24.95 65.52C25.52 62.81 26.02 59.79 26.45 56.47C26.51 55.99 26.56 55.51 26.61 55.03C26.9 55.06 27.18 55.1 27.47 55.13C30.64 55.42 33.71 55.49 36.68 55.34C37.19 55.32 37.66 55.27 38.14 55.23C38.14 55.45 38.13 55.65 38.13 55.87C38.13 59.3 38.27 62.61 38.56 65.83C39.06 70.83 40.36 74.41 42.47 76.59C44.57 78.77 47.45 79.86 51.09 79.86C55.3 79.86 58.58 78.51 60.94 75.79C63.3 73.08 64.47 68.83 64.47 63.05C64.47 57.77 64.06 52.38 63.24 46.88H63.21V46.89Z" fill="#F472B6"/>
<path d="M63.21 46.89C62.39 41.39 61.28 36.13 59.89 31.1C58.5 26.07 57.02 21.56 55.45 17.56C52.81 11.07 49.69 6.52 46.08 3.91C42.48 1.31 38.53 0 34.25 0C31.39 0 28.7 0.540001 26.17 1.61C23.64 2.68 21.21 4.52 18.89 7.12C16.57 9.73 14.3 13.38 12.09 18.09C10.38 21.8 8.79 25.8 7.33 30.08C5.87 34.36 4.58001 38.64 3.48001 42.93C2.37001 47.21 1.52 51.25 0.910004 55.03C0.300004 58.81 0 62.06 0 64.77C0 70.48 0.950012 74.42 2.84001 76.6C4.73001 78.78 7.46001 79.87 11.03 79.87C13.88 79.87 16.26 79.33 18.15 78.26C20.04 77.19 21.54 75.58 22.65 73.44C23.76 71.3 24.52 68.66 24.95 65.52C25.52 62.81 26.02 59.79 26.45 56.47C26.51 55.99 26.56 55.51 26.61 55.03C26.9 55.06 27.18 55.1 27.47 55.13C30.64 55.42 33.71 55.49 36.68 55.34C37.19 55.32 37.66 55.27 38.14 55.23C38.14 55.45 38.13 55.65 38.13 55.87C38.13 59.3 38.27 62.61 38.56 65.83C39.06 70.83 40.36 74.41 42.47 76.59C44.57 78.77 47.45 79.86 51.09 79.86C55.3 79.86 58.58 78.51 60.94 75.79C63.3 73.08 64.47 68.83 64.47 63.05C64.47 57.77 64.06 52.38 63.24 46.88H63.21V46.89Z" fill="#F472B6"/>
<path d="M63.21 46.89C62.39 41.39 61.28 36.13 59.89 31.1C58.5 26.07 57.02 21.56 55.45 17.56C52.81 11.07 49.69 6.52 46.08 3.91C42.48 1.31 38.53 0 34.25 0C31.39 0 28.7 0.540001 26.17 1.61C23.64 2.68 21.21 4.52 18.89 7.12C16.57 9.73 14.3 13.38 12.09 18.09C10.38 21.8 8.79 25.8 7.33 30.08C5.87 34.36 4.58001 38.64 3.48001 42.93C2.37001 47.21 1.52 51.25 0.910004 55.03C0.300004 58.81 0 62.06 0 64.77C0 70.48 0.950012 74.42 2.84001 76.6C4.73001 78.78 7.46001 79.87 11.03 79.87C13.88 79.87 16.26 79.33 18.15 78.26C20.04 77.19 21.54 75.58 22.65 73.44C23.76 71.3 24.52 68.66 24.95 65.52C25.52 62.81 26.02 59.79 26.45 56.47C26.51 55.99 26.56 55.51 26.61 55.03C26.9 55.06 27.18 55.1 27.47 55.13C30.64 55.42 33.71 55.49 36.68 55.34C37.19 55.32 37.66 55.27 38.14 55.23C38.14 55.45 38.13 55.65 38.13 55.87C38.13 59.3 38.27 62.61 38.56 65.83C39.06 70.83 40.36 74.41 42.47 76.59C44.57 78.77 47.45 79.86 51.09 79.86C55.3 79.86 58.58 78.51 60.94 75.79C63.3 73.08 64.47 68.83 64.47 63.05C64.47 57.77 64.06 52.38 63.24 46.88H63.21V46.89ZM44.75 41.66C42.12 43.76 38.38 44.8 33.55 44.8C28.72 44.8 25.3 43.86 22.67 41.98C20.04 40.1 18.72 37.6 18.72 34.49C18.72 32.56 19.12 30.41 19.93 28.04C20.74 25.68 21.78 23.5 23.07 21.51C24.36 19.52 25.92 17.86 27.74 16.51C29.57 15.17 31.61 14.5 33.86 14.5C36.11 14.5 37.99 15.14 39.82 16.43C41.65 17.72 43.2 19.31 44.49 21.18C45.78 23.06 46.8 25.1 47.55 27.3C48.3 29.5 48.68 31.47 48.68 33.18C48.68 36.73 47.36 39.55 44.73 41.64L44.75 41.66Z" fill="#1E021E"/>
<path d="M28.15 26.68C28.88 26.68 29.44 26.52 29.85 26.19C30.25 25.87 30.46 25.41 30.46 24.82C30.46 24.33 30.29 23.91 29.96 23.55C29.63 23.19 29.09 23 28.35 23C27.65 23 27.08 23.16 26.65 23.47C26.22 23.79 26 24.26 26 24.89C26 25.36 26.18 25.78 26.54 26.13C26.9 26.49 27.43 26.67 28.15 26.67V26.68Z" fill="#1E021E"/>
<path d="M39.15 26.68C39.88 26.68 40.44 26.52 40.85 26.19C41.25 25.87 41.46 25.41 41.46 24.82C41.46 24.33 41.29 23.91 40.96 23.55C40.63 23.19 40.09 23 39.35 23C38.65 23 38.08 23.16 37.65 23.47C37.22 23.79 37 24.26 37 24.89C37 25.36 37.18 25.78 37.54 26.13C37.9 26.49 38.43 26.67 39.15 26.67V26.68Z" fill="#1E021E"/>
<path d="M34.17 34.2C33.9 34.2 33.54 34.12 33.09 33.98C32.64 33.83 32.19 33.64 31.75 33.4C31.21 33.12 30.79 32.84 30.47 32.56C30.15 32.28 30 31.97 30 31.63C30 31.17 30.17 30.81 30.51 30.53C30.85 30.25 31.26 30.12 31.75 30.12C32.21 30.12 32.69 30.34 33.21 30.78C33.72 31.22 34.17 31.82 34.55 32.58L34.15 32.79C34.7 31.81 35.26 31.1 35.82 30.66C36.38 30.22 36.87 30 37.28 30C37.64 30 37.94 30.11 38.17 30.34C38.4 30.57 38.51 30.85 38.51 31.18C38.51 31.54 38.34 31.88 38.01 32.2C37.68 32.52 37.25 32.85 36.73 33.19C36.27 33.47 35.82 33.71 35.37 33.91C34.92 34.11 34.52 34.21 34.17 34.21V34.2Z" fill="#1E021E"/>
</svg>
