<svg width="436" height="705" viewBox="0 0 436 705" fill="none" xmlns="http://www.w3.org/2000/svg">
<g clip-path="url(#clip0_56_36)">
<path d="M15.0488 390.265C111.496 418.681 162.668 527.088 132.494 636.281L132.494 636.282C132.119 637.623 131.483 638.887 130.625 639.994C129.767 641.101 128.709 642.026 127.519 642.714C126.329 643.403 125.034 643.841 123.714 644.009C122.395 644.177 121.074 644.071 119.832 643.702L119.825 643.699L110.71 641.018C108.383 640.331 106.43 638.751 105.267 636.571C104.1 634.387 103.816 631.763 104.502 629.238L104.501 629.238C129.161 538.432 87.154 447.549 6.3569 422.517L4.44109 421.937C-75.007 398.534 -162.816 446.707 -200.386 530.051L-200.389 530.058C-202.489 534.755 -206.184 538.571 -210.74 540.785C-215.284 542.993 -220.36 543.452 -224.998 542.105L-225.293 542.01L-225.324 542.001C-226.565 541.637 -227.71 541.016 -228.687 540.172C-229.665 539.328 -230.458 538.276 -231.013 537.077C-231.568 535.877 -231.873 534.554 -231.903 533.189C-231.933 531.826 -231.689 530.453 -231.183 529.155C-189.44 423.366 -81.4056 361.847 15.0488 390.265Z" fill="#90EE90" stroke="#202020" stroke-width="5"/>
<path d="M25.8661 337.304C84.033 354.464 130.361 395.677 156.351 453.505L156.351 453.506C180.577 507.47 184.326 569.801 167.168 630.435L166.759 631.867C166.407 633.077 165.817 634.213 165.026 635.207C164.235 636.202 163.261 637.032 162.165 637.649C161.07 638.265 159.876 638.656 158.656 638.801C157.437 638.947 156.215 638.845 155.062 638.503L155.06 638.503L144.274 635.32L143.858 635.187C141.832 634.484 140.142 633.059 139.113 631.149C138.082 629.236 137.788 626.974 138.293 624.779L138.405 624.341C170.303 512.189 117.016 398.987 15.2727 368.98C-86.468 338.974 -199.063 403.233 -241.13 512.379C-242.011 514.642 -243.71 516.506 -245.856 517.592C-247.999 518.677 -250.422 518.904 -252.628 518.25L-252.631 518.249L-263.417 515.066L-263.419 515.066C-264.572 514.727 -265.636 514.153 -266.547 513.38C-267.458 512.606 -268.199 511.646 -268.723 510.553C-269.246 509.46 -269.54 508.257 -269.584 507.016C-269.629 505.778 -269.423 504.529 -268.977 503.347C-246.268 443.747 -205.034 394.074 -151.913 362.582L-151.912 362.583C-95.4242 329.078 -32.3018 320.143 25.8661 337.304Z" fill="#FFB2EF" stroke="#202020" stroke-width="5"/>
<path d="M38.1231 285.184C104.997 304.905 158.277 352.301 188.117 418.756L188.118 418.757C216.159 481.198 220.323 553.413 200.124 623.559L200.123 623.562C199.705 625.019 198.999 626.388 198.052 627.586C197.105 628.785 195.936 629.785 194.62 630.53C193.303 631.275 191.866 631.75 190.397 631.928C188.929 632.107 187.455 631.986 186.065 631.576L186.064 631.576L179.596 629.673L179.104 629.515C176.683 628.673 174.667 626.967 173.442 624.686C172.216 622.402 171.872 619.705 172.48 617.093L172.614 616.572C190.379 554.464 186.661 490.467 161.744 435.027C135.158 375.854 87.6326 333.494 27.836 315.854C-31.9603 298.214 -96.7382 307.45 -154.539 341.733C-208.691 373.85 -250.679 424.364 -273.892 484.867C-274.934 487.556 -276.949 489.774 -279.5 491.071C-282.051 492.367 -284.941 492.645 -287.575 491.868L-294.039 489.959C-295.429 489.549 -296.71 488.856 -297.806 487.922C-298.903 486.987 -299.793 485.828 -300.42 484.511C-301.047 483.194 -301.397 481.746 -301.445 480.255C-301.494 478.764 -301.239 477.262 -300.696 475.841L-300.696 475.84C-274.585 407.436 -227.234 350.415 -166.227 314.237C-101.314 275.742 -28.751 265.463 38.1231 285.184Z" fill="#90EE90" stroke="#202020" stroke-width="5"/>
</g>
<defs>
<clipPath id="clip0_56_36">
<rect width="565.945" height="378.455" fill="white" transform="translate(-216.788 174.118) rotate(18.7701)"/>
</clipPath>
</defs>
</svg>
