<svg width="530" height="235" viewBox="0 0 530 235" fill="none" xmlns="http://www.w3.org/2000/svg">
<path d="M399.05 137.47L392.85 130.23L387.71 126.37H374.51L363.45 131.92L361.7 140.86L353.24 139.78L343.5 141.72L331.9 150.73L323.81 164.69L328.56 183.03L342.96 192.93L355.11 197.39L369.12 192.93L373.97 189.63H383.68L403.73 192.93L420.31 180.33L427.9 159.65L418.2 140.86L411.19 139.78L399.05 137.47Z" fill="#71C98A"/>
<path d="M361.7 79.21V58.54L371.68 50.63L387.71 47.66L407.27 49.28L408.62 30.67C408.62 30.67 413.16 13.52 414.67 13.74C416.18 13.96 426.42 7.10001 426.42 7.10001L450.15 4.51001C450.15 4.51001 467.14 11.52 467.95 12.33C468.76 13.14 476.04 21.77 476.04 21.77L479.01 38.76L490.34 40.11L500.05 45.5L504.9 56.09L509.9 71.7L518.04 75.13L521.08 81.1L523.43 94.98L515.39 101.6L501.39 105.09L479.28 106.93L397.51 105.09C397.51 105.09 376.53 97.04 375.99 97.02C375.45 97 361.7 79.21 361.7 79.21Z" fill="#71C98A"/>
<path d="M511.25 61.27C515.1 54.62 513.67 45.9 507.93 40.58C501.31 34.44 492.02 33.91 483.53 35.25C482.14 12.58 460.44 -4.36001 438.01 1.01999C427.38 3.56999 417.16 9.97999 410.27 18.47C403.8 26.45 401.52 36.15 400.12 46.04C382.96 44.12 364.44 45.95 355.71 63.32C350.28 74.15 354.33 86.56 362.49 94.84C371.27 103.75 383.17 108.18 395.32 110.01C413.16 112.4 430.97 111.72 448.9 111.43C466.35 111.14 483.55 114.02 500.52 108.47C512.17 104.66 527.97 96.34 529.28 82.49C530.33 71.34 521.81 62.72 511.26 61.28L511.25 61.27ZM513.07 98.41C508.22 103.07 499.23 104.17 492.86 104.7C478.96 105.87 464.83 104.03 450.87 104.46C435.8 104.93 420.69 104.94 405.71 102.94C388.15 100.29 366.65 90.2 364.57 70.15C364.08 65.39 365.31 60.64 367.82 56.6C370.09 52.95 371.43 52.72 375.8 52.35C383.78 51.68 391.79 53.17 399.61 54.59C402.27 55.07 410.11 51.32 410.47 48.32C412.43 31.73 415.59 7.60999 436.9 7.09999C455.61 6.64999 471.65 23.4 472.26 41.73C472.3 43 473.7 42.54 474.56 42.37C482.37 40.84 491.89 41.79 497.57 47.99C502.16 52.99 503.93 60.98 499.74 66.72C499.52 67.02 498.98 68.14 499.85 68.22C508.89 69.06 516.91 75.23 517.94 84.67C518.48 89.63 516.68 94.93 513.07 98.4V98.41Z" fill="#80EAA1"/>
<path d="M173.41 168.83C173.43 157.44 167.81 141.65 154.87 139.52C146.42 138.13 137.91 142.79 130.67 148.13C123.98 131.98 110.65 115.73 91.46 117.94C75.04 119.83 61.12 130.83 52.63 144.71C43.96 139.18 32.08 140.87 22.98 145.9C10.99 152.53 1.25001 164.92 0.930006 179.09C0.670006 190.57 7.46001 200.33 17.48 205.52C27.01 210.46 37.73 210.17 47.46 206.5C50.69 219.86 66.51 230.67 79.61 232.14C89.9 233.29 101.34 228.55 109.1 221C114.44 223.85 119.8 225.76 126.18 225.15C126.34 225.15 126.52 225.15 126.75 225.1C127.28 225.04 127.81 224.91 128.34 224.76C154.44 219.07 173.36 195.74 173.42 168.82L173.41 168.83Z" fill="#71C98A"/>
<path d="M173.41 168.83C173.43 157.44 167.81 141.65 154.87 139.52C146.42 138.13 137.91 142.79 130.67 148.13C123.98 131.98 110.65 115.73 91.46 117.94C75.04 119.83 61.12 130.83 52.63 144.71C43.96 139.18 32.08 140.87 22.98 145.9C10.99 152.53 1.25001 164.92 0.930006 179.09C0.670006 190.57 7.46001 200.33 17.48 205.52C27.01 210.46 37.73 210.17 47.46 206.5C50.69 219.86 66.51 230.67 79.61 232.14C89.9 233.29 101.34 228.55 109.1 221C114.44 223.85 119.8 225.76 126.18 225.15C126.34 225.15 126.52 225.15 126.75 225.1C127.28 225.04 127.81 224.91 128.34 224.76C154.44 219.07 173.36 195.74 173.42 168.82L173.41 168.83ZM135.58 217.96C127.87 218.88 121.56 215.3 115.16 211.47C112.86 210.09 105.75 215.03 104.66 217.05C101.96 222.05 98.94 224.92 93.1 225.19C87.77 225.44 82.43 223.51 77.78 221.07C68.92 216.42 60.36 209.13 58.46 198.86C58.23 197.61 53.76 199.64 53.48 199.78C38 207.62 17.14 196.49 13.01 180.24C10.57 170.65 14.27 159.26 20.86 152.09C28.04 144.27 41.7 149.15 47.12 156.7C48.92 159.2 57.71 152.66 58.41 150.72C63.74 135.99 74.9 120.93 92.51 125.88C106.82 129.91 115.71 144.39 120.53 157.52C121.32 159.66 129 154.57 129.76 153.94C136.17 148.59 142.42 143.47 150.5 149.17C158.45 154.79 162.09 164.84 162.09 174.28C162.09 190.84 154.01 214.47 135.58 217.94V217.96Z" fill="#80EAA1"/>
<path d="M427.64 150.92C424.64 145.06 419.66 138.66 412.64 137.83C410 137.52 407.23 137.96 404.57 138.96C401.92 128.21 391.09 120.17 379.86 122.14C370.87 123.72 361.55 130.18 358.17 138.91C352.47 137.74 345.7 139.85 340.86 142.21C333.57 145.77 327.04 151.34 323.62 158.81C316.67 173.99 326.04 192.85 342.21 196.62C351.73 198.84 361.51 195.99 369.4 190.53C369.51 190.45 369.66 190.35 369.82 190.24C376.86 194.33 385.11 196.23 393.42 195.31C407.22 193.78 422.27 185.22 428.43 172.4C431.85 165.29 431.17 157.84 427.63 150.92H427.64ZM420.25 177.66C414.4 187.36 403.46 191.8 392.39 190.91C381.14 190 370.89 183.83 364.45 174.64C363.43 173.18 356.46 177.58 357.29 178.77C360.13 182.83 363.7 186.26 367.73 188.95C367.1 189.31 366.59 189.65 366.41 189.77C359.79 194.36 350.01 193.49 343.07 190.09C335.98 186.62 331.02 179.67 329.25 172.06C327.46 164.36 329.1 156.12 334.2 150C339.17 144.03 350.33 139.97 356.86 145.94C358.12 147.09 364.02 143.72 364.04 142.14C364.11 137.52 365.75 133.06 368.97 129.7C372.07 126.47 376.45 125.86 380.73 126.71C389.01 128.36 395.51 135.13 397.44 143.21C391.44 148.31 387.71 156.16 390.56 163.3C393.37 170.35 401.24 171 407.16 167.69C411.84 165.07 417.21 157.49 410.99 153.29C409.05 151.98 403.36 157.1 403.83 157.42C405.42 158.49 406.3 160 406.44 161.92C406.5 162.82 406.39 163.74 406.09 164.6C406.06 164.68 405.96 164.91 405.85 165.16C401.29 164.19 397.92 161.86 397.06 156.82C396.47 153.38 397.5 147.69 400.21 144.5C401.67 143.97 403.41 143.09 404.32 142.14C408.55 141.57 413.25 145.17 415.74 147.95C423.09 156.17 426.2 167.79 420.26 177.64V177.66H420.25Z" fill="#80EAA1"/>
<path d="M157.75 108.42C156.93 102.92 155.82 97.66 154.43 92.63C153.04 87.6 151.56 83.09 149.99 79.09C147.35 72.6 144.23 68.05 140.62 65.44C137.02 62.84 133.07 61.53 128.79 61.53C125.93 61.53 123.24 62.07 120.71 63.14C118.18 64.21 115.75 66.05 113.43 68.65C111.11 71.26 108.84 74.91 106.63 79.62C104.92 83.33 103.33 87.33 101.87 91.61C100.41 95.89 99.12 100.17 98.02 104.46C96.91 108.74 96.06 112.78 95.45 116.56C94.84 120.34 94.54 123.59 94.54 126.3C94.54 132.01 95.49 135.95 97.38 138.13C99.27 140.31 102 141.4 105.57 141.4C108.42 141.4 110.8 140.86 112.69 139.79C114.58 138.72 116.08 137.11 117.19 134.97C118.3 132.83 119.06 130.19 119.49 127.05C120.06 124.34 120.56 121.32 120.99 118C121.05 117.52 121.1 117.04 121.15 116.56C121.44 116.59 121.72 116.63 122.01 116.66C125.18 116.95 128.25 117.02 131.22 116.87C131.73 116.85 132.2 116.8 132.68 116.76C132.68 116.98 132.67 117.18 132.67 117.4C132.67 120.83 132.81 124.14 133.1 127.36C133.6 132.36 134.9 135.94 137.01 138.12C139.11 140.3 141.99 141.39 145.63 141.39C149.84 141.39 153.12 140.04 155.48 137.32C157.84 134.61 159.01 130.36 159.01 124.58C159.01 119.3 158.6 113.91 157.78 108.41H157.75V108.42ZM139.29 103.19C136.66 105.29 132.92 106.33 128.09 106.33C123.26 106.33 119.84 105.39 117.21 103.51C114.58 101.63 113.26 99.13 113.26 96.02C113.26 94.09 113.66 91.94 114.47 89.57C115.28 87.21 116.32 85.03 117.61 83.04C118.9 81.05 120.46 79.39 122.28 78.04C124.11 76.7 126.15 76.03 128.4 76.03C130.65 76.03 132.53 76.67 134.36 77.96C136.19 79.25 137.74 80.84 139.03 82.71C140.32 84.59 141.34 86.63 142.09 88.83C142.84 91.03 143.22 93 143.22 94.71C143.22 98.26 141.9 101.08 139.27 103.17L139.29 103.19Z" fill="#1E021E"/>
<path d="M180.39 76.2H179C178.71 73.06 178.82 70.08 179.32 67.26C179.82 64.44 180.93 62.16 182.64 60.41C184.35 58.66 186.78 57.79 189.92 57.79C193.06 57.79 195.36 58.56 196.83 60.09C198.29 61.63 199.02 63.78 199.02 66.57C199.02 70.5 198.16 73.85 196.45 76.63L195.38 76.42C198.23 75.07 201.38 74.39 204.8 74.39C208.22 74.39 211.22 75.19 213.36 76.8C215.5 78.41 216.57 81.14 216.57 84.99C216.57 88.56 215.34 91.29 212.88 93.18C210.42 95.07 207.33 96.02 203.62 96.02C202.12 96.02 200.53 95.93 198.86 95.75C197.18 95.57 195.52 95.27 193.88 94.84L194.74 93.34C195.6 95.62 196.43 98.21 197.26 101.1C198.08 103.99 198.79 106.97 199.4 110.04C200.01 113.11 200.51 116.13 200.9 119.09C201.29 122.05 201.49 124.68 201.49 126.96C201.49 131.53 200.45 135.13 198.39 137.77C196.32 140.41 193.21 141.73 189.08 141.73C186.37 141.73 184.14 141.18 182.39 140.07C180.64 138.96 179.27 137.48 178.27 135.63C177.27 133.77 176.57 131.63 176.18 129.21C175.79 126.78 175.59 124.29 175.59 121.72C175.59 119.15 175.77 116.14 176.13 112.89C176.49 109.64 177.04 106.25 177.79 102.72C178.54 99.19 179.38 95.81 180.31 92.6L181.7 95.06C179.06 96.92 175.74 97.84 171.74 97.84C168.03 97.84 165.12 96.95 163.01 95.16C160.9 93.38 159.85 90.66 159.85 87.02C159.85 83.17 160.99 80.19 163.28 78.08C165.56 75.98 168.63 74.92 172.49 74.92C174.06 74.92 175.52 75.05 176.88 75.29C178.23 75.54 179.41 75.84 180.41 76.2H180.39Z" fill="#1E021E"/>
<path d="M390.01 141.51C381.45 141.51 374.63 140.33 369.56 137.98C364.49 135.62 360.82 132.24 358.53 127.81C356.24 123.39 355.1 118.1 355.1 111.97C355.1 104.19 356.69 97.57 359.86 92.11C363.03 86.65 367.39 82.46 372.92 79.53C378.45 76.6 384.71 75.14 391.71 75.14C400.06 75.14 406.18 76.85 410.07 80.28C413.96 83.71 415.9 88.2 415.9 93.77C415.9 98.2 414.7 102.01 412.31 105.23C409.92 108.44 406.6 110.92 402.35 112.67C398.1 114.42 393.2 115.29 387.63 115.29C384.99 115.29 382.4 115.06 379.87 114.59C377.34 114.13 375.03 113.5 372.96 112.72L375.53 107.05C375.32 108.76 375.21 110.48 375.21 112.19C375.21 115.76 376.46 118.29 378.96 119.79C381.46 121.29 384.92 122.04 389.34 122.04C393.34 122.04 396.69 121.63 399.4 120.81C402.11 119.99 404.48 119.19 406.52 118.4C408.55 117.62 410.46 117.22 412.25 117.22C413.46 117.22 414.69 117.52 415.94 118.13C417.19 118.74 418.22 119.68 419.04 120.97C419.86 122.25 420.27 123.93 420.27 126C420.27 128.86 419.11 131.46 416.79 133.81C414.47 136.17 411.06 138.04 406.57 139.43C402.07 140.82 396.54 141.52 389.98 141.52H390.01V141.51ZM383.8 104.78C387.65 104.78 390.9 103.87 393.54 102.05C396.18 100.23 397.5 98.04 397.5 95.47C397.5 93.61 396.86 92.12 395.57 90.97C394.29 89.83 392.43 89.26 390 89.26C387.57 89.26 385.18 89.74 383.04 90.71C380.9 91.67 379.19 92.9 377.9 94.4C376.62 95.9 375.97 97.58 375.97 99.43C375.97 101.14 376.67 102.46 378.06 103.39C379.45 104.32 381.36 104.78 383.79 104.78H383.8Z" fill="#1E021E"/>
<path d="M424.59 95.36C424.59 87.44 425.54 81.73 427.43 78.23C429.32 74.73 431.94 72.98 435.3 72.98C437.66 72.98 439.53 73.75 440.92 75.28C442.31 76.82 443.31 78.71 443.92 80.95C444.53 83.2 444.83 85.47 444.83 87.75L444.29 87.54C445.5 83.69 447.34 80.37 449.8 77.58C452.26 74.8 455.24 73.4 458.74 73.4C463.31 73.4 466.66 75.2 468.8 78.81C470.94 82.41 472.01 86.89 472.01 92.25C472.01 99.39 470.97 104.38 468.9 107.24C466.83 110.1 464.08 111.52 460.66 111.52C458.02 111.52 456.09 110.72 454.88 109.11C453.67 107.5 453.2 104.99 453.49 101.56C453.63 98.63 453.49 96.64 453.06 95.56C452.63 94.49 451.95 93.95 451.03 93.95C449.82 93.95 448.89 94.66 448.25 96.09C447.61 97.52 447.29 99.41 447.29 101.76C447.29 103.19 447.47 104.99 447.83 107.17C448.19 109.35 448.58 111.72 449.01 114.29C449.44 116.86 449.83 119.41 450.19 121.94C450.55 124.47 450.73 126.81 450.73 128.95C450.73 133.23 449.77 136.28 447.84 138.1C445.91 139.92 443.24 140.83 439.81 140.83C436.38 140.83 433.74 139.94 431.67 138.15C429.6 136.37 428.17 133.44 427.39 129.37C426.96 126.59 426.51 123.2 426.05 119.2C425.59 115.2 425.23 111.06 424.98 106.78C424.73 102.5 424.6 98.68 424.6 95.32V95.36H424.59Z" fill="#1E021E"/>
<path d="M128.89 234.01C125.46 234.01 122.79 233.15 120.86 231.44C118.93 229.73 117.59 226.89 116.85 222.93C116.1 218.97 115.73 213.71 115.73 207.14C115.73 197.79 116.39 189.74 117.71 183C119.03 176.26 121.05 170.92 123.76 166.99C127.04 162.35 131.27 159.05 136.45 157.09C141.62 155.13 147.21 154.15 153.2 154.15C162.84 154.15 169.94 156.29 174.5 160.57C179.07 164.85 181.35 170.46 181.35 177.38C181.35 182.23 180.19 186.32 177.87 189.64C175.55 192.96 172.36 195.42 168.29 197.03C164.22 198.64 159.62 199.4 154.48 199.33V199.76C163.97 203.04 170.73 206.56 174.77 210.31C178.8 214.06 180.82 217.82 180.82 221.6C180.82 225.03 179.7 227.74 177.45 229.74C175.2 231.74 172.15 232.74 168.3 232.74C164.94 232.74 161.77 231.81 158.77 229.96C155.77 228.11 152.74 224.95 149.67 220.49C146.6 216.03 143.28 209.87 139.71 202.02H139.28C139.64 203.45 139.94 205.18 140.19 207.21C140.44 209.24 140.65 211.32 140.83 213.42C141.01 215.53 141.1 217.54 141.1 219.47C141.1 224.18 140.19 227.79 138.37 230.28C136.55 232.78 133.39 234.03 128.9 234.03V234.01H128.89ZM149.34 186.68C151.48 186.68 153.36 186.34 154.96 185.66C156.57 184.98 157.85 184.02 158.81 182.77C159.77 181.52 160.26 180.08 160.26 178.43C160.26 175.72 159.47 173.52 157.9 171.85C156.33 170.17 153.87 169.33 150.51 169.33C148.3 169.33 146.37 169.74 144.73 170.56C143.09 171.38 141.84 172.49 140.98 173.88C140.12 175.27 139.7 176.75 139.7 178.32C139.7 180.75 140.54 182.75 142.22 184.32C143.9 185.89 146.27 186.67 149.34 186.67V186.68Z" fill="#1E021E"/>
<path d="M220.43 234.11C211.87 234.11 205.05 232.93 199.98 230.58C194.91 228.22 191.24 224.84 188.95 220.41C186.66 215.99 185.52 210.7 185.52 204.57C185.52 196.79 187.11 190.17 190.28 184.71C193.46 179.25 197.81 175.06 203.34 172.13C208.87 169.2 215.13 167.74 222.13 167.74C230.48 167.74 236.6 169.45 240.49 172.88C244.38 176.31 246.32 180.8 246.32 186.37C246.32 190.8 245.12 194.61 242.73 197.83C240.34 201.04 237.02 203.52 232.77 205.27C228.52 207.02 223.62 207.89 218.05 207.89C215.41 207.89 212.82 207.66 210.29 207.19C207.76 206.73 205.45 206.1 203.38 205.32L205.95 199.65C205.74 201.36 205.63 203.08 205.63 204.79C205.63 208.36 206.88 210.89 209.38 212.39C211.88 213.89 215.34 214.64 219.76 214.64C223.76 214.64 227.11 214.23 229.82 213.41C232.53 212.59 234.9 211.79 236.94 211C238.97 210.22 240.88 209.82 242.67 209.82C243.88 209.82 245.11 210.12 246.36 210.73C247.61 211.34 248.64 212.28 249.46 213.57C250.28 214.85 250.69 216.53 250.69 218.6C250.69 221.46 249.53 224.06 247.21 226.41C244.89 228.77 241.48 230.64 236.99 232.03C232.49 233.42 226.96 234.12 220.4 234.12H220.43V234.11ZM218.82 146.54C220.03 146.54 221.66 146.88 223.69 147.56C225.72 148.24 227.74 149.11 229.74 150.18C232.17 151.46 234.09 152.73 235.52 153.98C236.95 155.23 237.66 156.64 237.66 158.21C237.66 160.28 236.89 161.94 235.36 163.19C233.82 164.44 231.95 165.06 229.74 165.06C227.67 165.06 225.47 164.06 223.16 162.06C220.84 160.06 218.82 157.35 217.11 153.92L218.93 152.96C216.43 157.39 213.91 160.6 211.38 162.6C208.85 164.6 206.65 165.6 204.8 165.6C203.16 165.6 201.82 165.08 200.79 164.05C199.75 163.02 199.24 161.75 199.24 160.25C199.24 158.61 199.99 157.08 201.49 155.65C202.99 154.22 204.92 152.72 207.27 151.15C209.34 149.87 211.39 148.78 213.43 147.88C215.46 146.99 217.27 146.54 218.84 146.54H218.82ZM214.22 197.39C218.07 197.39 221.32 196.48 223.96 194.66C226.6 192.84 227.92 190.65 227.92 188.08C227.92 186.22 227.28 184.73 225.99 183.58C224.71 182.44 222.85 181.87 220.42 181.87C217.99 181.87 215.6 182.35 213.46 183.32C211.32 184.28 209.61 185.51 208.32 187.01C207.03 188.51 206.39 190.19 206.39 192.04C206.39 193.75 207.09 195.07 208.48 196C209.87 196.93 211.78 197.39 214.21 197.39H214.22Z" fill="#1E021E"/>
<path d="M273.54 175.03C270 175.03 267.23 173.66 265.22 170.92C263.21 168.18 262.2 164 262.2 158.38C262.2 152.76 263.17 148.71 265.1 146.12C267.04 143.53 269.79 142.24 273.37 142.24C275.57 142.24 277.48 142.69 279.12 143.58C280.76 144.47 282.23 145.74 283.53 147.38L282.75 147.6C282.49 146.22 282.25 144.75 282.02 143.19C281.8 141.63 281.61 140.15 281.46 138.75C281.31 137.35 281.24 136.25 281.24 135.43C281.24 133.79 281.6 132.52 282.33 131.6C283.06 130.69 284.16 130.23 285.65 130.23C287.4 130.23 288.83 130.84 289.95 132.07C291.07 133.3 291.91 135.16 292.46 137.66C292.87 139.34 293.22 141.41 293.52 143.89C293.82 146.37 294.06 148.95 294.25 151.65C294.44 154.35 294.53 156.91 294.53 159.33C294.53 163.35 294.25 166.49 293.69 168.74C293.13 170.99 292.36 172.57 291.37 173.46C290.38 174.35 289.24 174.8 287.93 174.8C286.33 174.8 285.24 174.22 284.66 173.07C284.08 171.92 283.77 170.04 283.74 167.43H284.75C283.74 169.74 282.28 171.58 280.36 172.96C278.44 174.34 276.16 175.03 273.52 175.03H273.54ZM278.51 165.87C279.4 165.87 280.23 165.6 281 165.06C281.76 164.52 282.37 163.69 282.82 162.57C283.27 161.45 283.49 160.02 283.49 158.27C283.49 156.04 283.08 154.22 282.26 152.82C281.44 151.42 280.16 150.73 278.41 150.73C276.96 150.73 275.79 151.35 274.92 152.6C274.04 153.85 273.61 155.72 273.61 158.21C273.61 160.44 274.06 162.28 274.95 163.71C275.84 165.14 277.03 165.86 278.52 165.86L278.51 165.87Z" fill="#1E021E"/>
<path d="M381.18 213.56C380.36 212.28 379.32 211.33 378.07 210.72C376.82 210.11 375.59 209.81 374.38 209.81C372.59 209.81 370.69 210.2 368.65 210.99C366.62 211.78 364.24 212.58 361.53 213.4C358.82 214.22 355.46 214.63 351.47 214.63C347.04 214.63 343.58 213.88 341.08 212.38C338.9 211.07 337.67 208.97 337.39 206.08C338.83 206.51 340.35 206.88 341.99 207.18C344.52 207.65 347.11 207.88 349.75 207.88C355.32 207.88 360.22 207.01 364.47 205.26C368.71 203.51 372.03 201.03 374.43 197.82C376.82 194.61 378.02 190.79 378.02 186.36C378.02 180.79 376.07 176.3 372.18 172.87C368.29 169.44 362.17 167.73 353.82 167.73C347.44 167.73 341.67 168.96 336.51 171.4C336.33 172.09 336.12 172.74 335.89 173.34C334.05 178.08 329.99 180.91 325.03 180.91C324.86 180.91 324.7 180.9 324.53 180.89C323.6 182.08 322.75 183.35 321.96 184.7C318.78 190.16 317.2 196.78 317.2 204.56C317.2 210.7 318.34 215.98 320.63 220.4C322.91 224.83 326.59 228.22 331.66 230.57C336.73 232.92 343.54 234.1 352.11 234.1C358.68 234.1 364.21 233.4 368.71 232.01C373.21 230.62 376.61 228.74 378.93 226.39C381.25 224.04 382.41 221.43 382.41 218.58C382.41 216.51 382 214.83 381.18 213.55V213.56ZM340.01 187.01C341.29 185.51 343.01 184.28 345.15 183.32C347.29 182.36 349.61 181.87 352.11 181.87C354.61 181.87 356.39 182.44 357.68 183.58C358.97 184.72 359.61 186.22 359.61 188.08C359.61 190.65 358.29 192.84 355.65 194.66C353.01 196.48 349.76 197.39 345.91 197.39C343.48 197.39 341.57 196.93 340.18 196C338.79 195.07 338.09 193.75 338.09 192.04C338.09 190.19 338.73 188.51 340.02 187.01H340.01Z" fill="#1E021E"/>
<path d="M337.45 78.02C341.3 78.02 344.3 77.16 346.44 75.45C348.58 73.74 349.65 71.31 349.65 68.17C349.65 65.6 348.77 63.35 347.03 61.42C345.28 59.49 342.44 58.53 338.52 58.53C334.81 58.53 331.81 59.37 329.53 61.05C327.24 62.73 326.1 65.24 326.1 68.6C326.1 71.1 327.05 73.29 328.94 75.18C330.83 77.07 333.67 78.02 337.45 78.02Z" fill="#1E021E"/>
<path d="M122.38 87.7C123.11 87.7 123.67 87.54 124.08 87.21C124.48 86.89 124.69 86.43 124.69 85.84C124.69 85.35 124.52 84.93 124.19 84.57C123.86 84.21 123.32 84.02 122.58 84.02C121.88 84.02 121.31 84.18 120.88 84.49C120.45 84.81 120.23 85.28 120.23 85.91C120.23 86.38 120.41 86.8 120.77 87.15C121.13 87.51 121.66 87.69 122.38 87.69V87.7Z" fill="#1E021E"/>
<path d="M134.03 87.39C134.76 87.39 135.32 87.23 135.73 86.9C136.13 86.58 136.34 86.12 136.34 85.53C136.34 85.04 136.17 84.62 135.84 84.26C135.51 83.9 134.97 83.71 134.23 83.71C133.53 83.71 132.96 83.87 132.53 84.18C132.1 84.5 131.88 84.97 131.88 85.6C131.88 86.07 132.06 86.49 132.42 86.84C132.78 87.2 133.31 87.38 134.03 87.38V87.39Z" fill="#1E021E"/>
<path d="M339.38 82.41C335.31 82.41 331.99 85.21 329.42 90.81C326.85 96.41 325.57 104.96 325.57 116.45C325.57 123.95 326.11 129.64 327.19 133.54C328.05 133.84 328.86 134.22 329.62 134.7C331.74 136.02 333.38 137.94 334.39 140.27C334.59 140.7 334.78 141.17 334.96 141.66C335.28 141.69 335.61 141.73 335.95 141.73C340.59 141.73 344.03 139.2 346.28 134.13C348.53 129.06 349.65 120.78 349.65 109.29C349.65 99.94 348.74 93.12 346.92 88.84C345.1 84.56 342.58 82.42 339.37 82.42H339.38V82.41Z" fill="#1E021E"/>
<path d="M325.04 173.91C323.66 173.91 322.6 173.57 321.86 172.88C321.11 172.19 320.61 171.3 320.35 170.2C320.09 169.1 319.96 167.94 319.96 166.71L320.24 166.49C319.72 168.09 318.9 169.47 317.78 170.62C316.66 171.77 315.39 172.66 313.95 173.27C312.52 173.88 311.09 174.19 309.68 174.19C307.56 174.19 305.74 173.72 304.23 172.79C302.72 171.86 301.5 170.37 300.57 168.32C299.79 166.53 299.15 164.16 298.67 161.2C298.19 158.24 297.94 155.18 297.94 152.01C297.94 150.48 298.01 149.09 298.16 147.82C298.31 146.55 298.51 145.49 298.77 144.64C299.18 143.34 299.86 142.38 300.81 141.76C301.76 141.15 302.9 140.84 304.25 140.84C305.81 140.84 307.06 141.37 307.99 142.43C308.92 143.49 309.48 144.95 309.67 146.81C309.78 147.96 309.87 149.31 309.95 150.83C310.02 152.36 310.09 153.87 310.15 155.35C310.21 156.84 310.29 158.12 310.4 159.2C310.55 160.76 310.94 161.93 311.57 162.69C312.2 163.45 313.02 163.84 314.03 163.84C315.37 163.84 316.38 163.25 317.07 162.08C317.76 160.91 318.1 159.3 318.1 157.25C318.1 156.13 318.04 154.89 317.93 153.51C317.82 152.13 317.72 150.79 317.62 149.49C317.53 148.19 317.48 147.11 317.48 146.25C317.48 143.94 317.93 142.28 318.82 141.28C319.71 140.27 320.94 139.77 322.51 139.77C323.85 139.77 324.99 140.06 325.92 140.64C326.85 141.22 327.54 142.05 327.99 143.13C328.51 144.21 328.96 145.69 329.33 147.57C329.7 149.45 330 151.57 330.22 153.94C330.44 156.31 330.55 158.81 330.55 161.45C330.55 165.62 330.15 168.74 329.35 170.81C328.55 172.88 327.11 173.91 325.02 173.91H325.04Z" fill="#1E021E"/>
<path d="M313.42 180.77C312.18 181.05 310.93 181.2 309.68 181.2C306.25 181.2 303.18 180.38 300.56 178.76C299.59 178.16 298.69 177.44 297.86 176.62C297.33 177.38 296.74 178.07 296.09 178.66C294.73 179.89 293.18 180.76 291.51 181.28C291.22 183.91 290.76 187.11 290.12 190.87C289.48 194.65 288.73 198.62 287.87 202.75C287.01 206.89 286.12 210.82 285.19 214.53H284.76C283.9 210.82 282.96 206.73 281.92 202.27C280.88 197.81 279.89 193.53 278.92 189.42C278.25 186.55 277.63 183.99 277.08 181.73C275.93 181.93 274.75 182.04 273.52 182.04C267.73 182.04 262.9 179.63 259.56 175.08C258.23 173.27 257.22 171.14 256.5 168.7C256.23 169 255.97 169.32 255.74 169.67C254.1 172.17 253.28 175.88 253.28 180.8C253.28 184.44 253.67 188.44 254.46 192.79C255.24 197.14 256.4 201.55 257.94 206.01C259.47 210.47 261.35 214.77 263.56 218.91C266.49 224.26 269.48 228.12 272.55 230.47C275.62 232.83 279.15 234 283.15 234C286.58 234 289.66 233.23 292.41 231.7C295.16 230.17 297.64 227.95 299.85 225.06C302.06 222.17 304.1 218.76 305.95 214.84C307.38 211.7 308.66 208.27 309.8 204.56C310.94 200.85 311.83 197.08 312.48 193.27C313.12 189.45 313.44 185.83 313.44 182.4C313.44 181.84 313.42 181.29 313.4 180.76H313.42V180.77Z" fill="#1E021E"/>
<path d="M273.37 135.24C273.66 135.24 273.96 135.24 274.25 135.26C274.28 132.08 275.16 129.39 276.86 127.24C278.53 125.15 280.9 123.83 283.65 123.4C283.45 122.47 283.13 121.65 282.69 120.95C281.87 119.67 280.83 118.72 279.59 118.11C278.34 117.5 277.11 117.2 275.9 117.2C274.11 117.2 272.21 117.59 270.17 118.38C268.14 119.17 265.76 119.97 263.05 120.79C260.34 121.61 256.98 122.02 252.99 122.02C248.56 122.02 245.1 121.27 242.61 119.77C240.43 118.46 239.2 116.36 238.92 113.47C240.36 113.9 241.88 114.27 243.52 114.57C246.05 115.04 248.64 115.27 251.28 115.27C256.85 115.27 261.75 114.4 266 112.65C270.25 110.9 273.56 108.42 275.96 105.21C278.35 102 279.55 98.18 279.55 93.75C279.55 88.18 277.6 83.69 273.72 80.26C269.83 76.83 263.71 75.12 255.36 75.12C248.36 75.12 242.1 76.58 236.57 79.51C231.04 82.44 226.68 86.63 223.51 92.09C220.33 97.55 218.75 104.17 218.75 111.95C218.75 118.09 219.89 123.37 222.18 127.79C224.46 132.22 228.14 135.61 233.21 137.96C238.28 140.31 245.09 141.49 253.66 141.49C255.94 141.49 258.08 141.4 260.11 141.23C263.36 137.31 267.93 135.22 273.41 135.22L273.37 135.24ZM241.52 94.4C242.8 92.9 244.52 91.67 246.66 90.71C248.8 89.75 251.12 89.26 253.62 89.26C256.12 89.26 257.9 89.83 259.19 90.97C260.47 92.11 261.12 93.61 261.12 95.47C261.12 98.04 259.8 100.23 257.16 102.05C254.52 103.87 251.27 104.78 247.42 104.78C244.99 104.78 243.08 104.32 241.69 103.39C240.3 102.46 239.6 101.14 239.6 99.43C239.6 97.58 240.24 95.9 241.53 94.4H241.52Z" fill="#1E021E"/>
<path d="M318.93 121.33C317.5 120.01 315.5 119.35 312.93 119.35C311.51 119.35 310.01 119.58 308.44 120C309.09 117.35 309.68 114.58 310.2 111.64C311.02 107 311.68 102.24 312.18 97.35C312.68 92.46 312.93 87.8 312.93 83.38C312.93 79.67 312.75 76.15 312.39 72.83C312.03 69.51 311.6 66.67 311.11 64.32C310.4 61.32 309.29 59.18 307.79 57.9C306.29 56.62 304.4 55.97 302.12 55.97C299.98 55.97 298.16 56.6 296.66 57.84C295.16 59.09 293.8 61.21 292.59 64.21C291.8 66.21 291.07 69.19 290.4 73.15C289.72 77.11 289.19 81.48 288.79 86.26C288.4 91.04 288.2 95.75 288.2 100.39C288.2 108.1 288.47 114.67 289 120.09C289.13 121.38 289.27 122.61 289.44 123.77C291.62 124.41 293.55 125.62 295.14 127.37C296.88 129.28 298.14 131.74 298.99 134.87C300.6 134.2 302.36 133.85 304.26 133.85C307.65 133.85 310.72 135.13 312.94 137.47C313.15 137.18 313.37 136.91 313.6 136.64C314.76 135.34 316.6 133.86 319.32 133.17C320.48 131.38 321.06 129.48 321.06 127.48C321.06 124.7 320.35 122.65 318.92 121.32L318.93 121.33Z" fill="#1E021E"/>
<path d="M82.32 147.65C81.13 148.28 80.06 148.55 79.09 148.46C78.12 148.37 77.12 147.87 76.09 146.93C74.98 145.93 73.75 144.41 72.41 142.37C71.06 140.34 69.59 137.79 67.97 134.74C67 132.9 66.09 131 65.25 129.03C64.41 127.06 63.7 125.21 63.14 123.51C62.58 121.8 62.25 120.47 62.14 119.51C61.99 118.07 62.09 116.95 62.42 116.14C62.75 115.33 63.34 114.7 64.19 114.26C65.09 113.78 65.98 113.64 66.84 113.84C67.7 114.03 68.59 114.65 69.5 115.69C70.19 116.52 70.95 117.55 71.79 118.79C72.62 120.03 73.43 121.38 74.21 122.85C75.14 124.6 76.01 126.5 76.84 128.53C77.66 130.57 78.4 132.59 79.04 134.6C79.69 136.61 80.19 138.51 80.56 140.3L77.47 142.15C77.89 141.03 78.49 140.01 79.28 139.11C80.07 138.21 80.88 137.53 81.73 137.08C82.75 136.54 83.68 136.39 84.52 136.61C85.36 136.83 86.07 137.5 86.65 138.6C87.14 139.53 87.29 140.58 87.08 141.73C86.88 142.89 86.37 143.99 85.55 145.03C84.73 146.08 83.66 146.95 82.33 147.65H82.32Z" fill="#1E021E"/>
<path d="M83.87 118.27C82.01 119.25 80.51 119.56 79.39 119.17C78.27 118.78 77.34 117.91 76.61 116.52C76.21 115.76 75.95 114.93 75.84 114.03C75.73 113.13 75.91 112.24 76.38 111.36C76.85 110.48 77.71 109.71 78.95 109.05C80.39 108.29 81.79 108.11 83.14 108.52C84.49 108.93 85.65 110.03 86.6 111.84C87.14 112.86 87.54 114.05 87.82 115.42C88.09 116.79 88.14 118.16 87.96 119.52C87.81 120.61 87.56 121.5 87.21 122.19C86.85 122.88 86.42 123.37 85.91 123.63C85.49 123.85 85.07 123.92 84.66 123.83C84.25 123.74 83.93 123.47 83.69 123.02C83.48 122.63 83.34 122.03 83.26 121.24C83.19 120.45 83.28 119.24 83.54 117.62L83.88 118.26L83.87 118.27Z" fill="#1E021E"/>
<path d="M128.17 95.4C127.9 95.4 127.54 95.32 127.09 95.18C126.64 95.03 126.19 94.84 125.75 94.6C125.21 94.32 124.79 94.04 124.47 93.76C124.15 93.48 124 93.17 124 92.83C124 92.37 124.17 92.01 124.51 91.73C124.85 91.45 125.26 91.32 125.75 91.32C126.21 91.32 126.69 91.54 127.21 91.98C127.72 92.42 128.17 93.02 128.55 93.78L128.15 93.99C128.7 93.01 129.26 92.3 129.82 91.86C130.38 91.42 130.87 91.2 131.28 91.2C131.64 91.2 131.94 91.31 132.17 91.54C132.4 91.77 132.51 92.05 132.51 92.38C132.51 92.74 132.34 93.08 132.01 93.4C131.68 93.72 131.25 94.05 130.73 94.39C130.27 94.67 129.82 94.91 129.37 95.11C128.92 95.31 128.52 95.41 128.17 95.41V95.4Z" fill="#1E021E"/>
<path d="M157.75 108.42C156.93 102.92 155.82 97.66 154.43 92.63C153.04 87.6 151.56 83.09 149.99 79.09C147.35 72.6 144.23 68.05 140.62 65.44C137.02 62.84 133.07 61.53 128.79 61.53C125.93 61.53 123.24 62.07 120.71 63.14C118.18 64.21 115.75 66.05 113.43 68.65C111.11 71.26 108.84 74.91 106.63 79.62C104.92 83.33 103.33 87.33 101.87 91.61C100.41 95.89 99.12 100.17 98.02 104.46C96.91 108.74 96.06 112.78 95.45 116.56C94.84 120.34 94.54 123.59 94.54 126.3C94.54 132.01 95.49 135.95 97.38 138.13C99.27 140.31 102 141.4 105.57 141.4C108.42 141.4 110.8 140.86 112.69 139.79C114.58 138.72 116.08 137.11 117.19 134.97C118.3 132.83 119.06 130.19 119.49 127.05C120.06 124.34 120.56 121.32 120.99 118C121.05 117.52 121.1 117.04 121.15 116.56C121.44 116.59 121.72 116.63 122.01 116.66C125.18 116.95 128.25 117.02 131.22 116.87C131.73 116.85 132.2 116.8 132.68 116.76C132.68 116.98 132.67 117.18 132.67 117.4C132.67 120.83 132.81 124.14 133.1 127.36C133.6 132.36 134.9 135.94 137.01 138.12C139.11 140.3 141.99 141.39 145.63 141.39C149.84 141.39 153.12 140.04 155.48 137.32C157.84 134.61 159.01 130.36 159.01 124.58C159.01 119.3 158.6 113.91 157.78 108.41H157.75V108.42ZM139.29 103.19C136.66 105.29 132.92 106.33 128.09 106.33C123.26 106.33 119.84 105.39 117.21 103.51C114.58 101.63 113.26 99.13 113.26 96.02C113.26 94.09 113.66 91.94 114.47 89.57C115.28 87.21 116.32 85.03 117.61 83.04C118.9 81.05 120.46 79.39 122.28 78.04C124.11 76.7 126.15 76.03 128.4 76.03C130.65 76.03 132.53 76.67 134.36 77.96C136.19 79.25 137.74 80.84 139.03 82.71C140.32 84.59 141.34 86.63 142.09 88.83C142.84 91.03 143.22 93 143.22 94.71C143.22 98.26 141.9 101.08 139.27 103.17L139.29 103.19Z" fill="#1E021E"/>
<path d="M180.39 76.2H179C178.71 73.06 178.82 70.08 179.32 67.26C179.82 64.44 180.93 62.16 182.64 60.41C184.35 58.66 186.78 57.79 189.92 57.79C193.06 57.79 195.36 58.56 196.83 60.09C198.29 61.63 199.02 63.78 199.02 66.57C199.02 70.5 198.16 73.85 196.45 76.63L195.38 76.42C198.23 75.07 201.38 74.39 204.8 74.39C208.22 74.39 211.22 75.19 213.36 76.8C215.5 78.41 216.57 81.14 216.57 84.99C216.57 88.56 215.34 91.29 212.88 93.18C210.42 95.07 207.33 96.02 203.62 96.02C202.12 96.02 200.53 95.93 198.86 95.75C197.18 95.57 195.52 95.27 193.88 94.84L194.74 93.34C195.6 95.62 196.43 98.21 197.26 101.1C198.08 103.99 198.79 106.97 199.4 110.04C200.01 113.11 200.51 116.13 200.9 119.09C201.29 122.05 201.49 124.68 201.49 126.96C201.49 131.53 200.45 135.13 198.39 137.77C196.32 140.41 193.21 141.73 189.08 141.73C186.37 141.73 184.14 141.18 182.39 140.07C180.64 138.96 179.27 137.48 178.27 135.63C177.27 133.77 176.57 131.63 176.18 129.21C175.79 126.78 175.59 124.29 175.59 121.72C175.59 119.15 175.77 116.14 176.13 112.89C176.49 109.64 177.04 106.25 177.79 102.72C178.54 99.19 179.38 95.81 180.31 92.6L181.7 95.06C179.06 96.92 175.74 97.84 171.74 97.84C168.03 97.84 165.12 96.95 163.01 95.16C160.9 93.38 159.85 90.66 159.85 87.02C159.85 83.17 160.99 80.19 163.28 78.08C165.56 75.98 168.63 74.92 172.49 74.92C174.06 74.92 175.52 75.05 176.88 75.29C178.23 75.54 179.41 75.84 180.41 76.2H180.39Z" fill="#1E021E"/>
<path d="M390.01 141.51C381.45 141.51 374.63 140.33 369.56 137.98C364.49 135.62 360.82 132.24 358.53 127.81C356.24 123.39 355.1 118.1 355.1 111.97C355.1 104.19 356.69 97.57 359.86 92.11C363.03 86.65 367.39 82.46 372.92 79.53C378.45 76.6 384.71 75.14 391.71 75.14C400.06 75.14 406.18 76.85 410.07 80.28C413.96 83.71 415.9 88.2 415.9 93.77C415.9 98.2 414.7 102.01 412.31 105.23C409.92 108.44 406.6 110.92 402.35 112.67C398.1 114.42 393.2 115.29 387.63 115.29C384.99 115.29 382.4 115.06 379.87 114.59C377.34 114.13 375.03 113.5 372.96 112.72L375.53 107.05C375.32 108.76 375.21 110.48 375.21 112.19C375.21 115.76 376.46 118.29 378.96 119.79C381.46 121.29 384.92 122.04 389.34 122.04C393.34 122.04 396.69 121.63 399.4 120.81C402.11 119.99 404.48 119.19 406.52 118.4C408.55 117.62 410.46 117.22 412.25 117.22C413.46 117.22 414.69 117.52 415.94 118.13C417.19 118.74 418.22 119.68 419.04 120.97C419.86 122.25 420.27 123.93 420.27 126C420.27 128.86 419.11 131.46 416.79 133.81C414.47 136.17 411.06 138.04 406.57 139.43C402.07 140.82 396.54 141.52 389.98 141.52H390.01V141.51ZM383.8 104.78C387.65 104.78 390.9 103.87 393.54 102.05C396.18 100.23 397.5 98.04 397.5 95.47C397.5 93.61 396.86 92.12 395.57 90.97C394.29 89.83 392.43 89.26 390 89.26C387.57 89.26 385.18 89.74 383.04 90.71C380.9 91.67 379.19 92.9 377.9 94.4C376.62 95.9 375.97 97.58 375.97 99.43C375.97 101.14 376.67 102.46 378.06 103.39C379.45 104.32 381.36 104.78 383.79 104.78H383.8Z" fill="#1E021E"/>
<path d="M424.59 95.36C424.59 87.44 425.54 81.73 427.43 78.23C429.32 74.73 431.94 72.98 435.3 72.98C437.66 72.98 439.53 73.75 440.92 75.28C442.31 76.82 443.31 78.71 443.92 80.95C444.53 83.2 444.83 85.47 444.83 87.75L444.29 87.54C445.5 83.69 447.34 80.37 449.8 77.58C452.26 74.8 455.24 73.4 458.74 73.4C463.31 73.4 466.66 75.2 468.8 78.81C470.94 82.41 472.01 86.89 472.01 92.25C472.01 99.39 470.97 104.38 468.9 107.24C466.83 110.1 464.08 111.52 460.66 111.52C458.02 111.52 456.09 110.72 454.88 109.11C453.67 107.5 453.2 104.99 453.49 101.56C453.63 98.63 453.49 96.64 453.06 95.56C452.63 94.49 451.95 93.95 451.03 93.95C449.82 93.95 448.89 94.66 448.25 96.09C447.61 97.52 447.29 99.41 447.29 101.76C447.29 103.19 447.47 104.99 447.83 107.17C448.19 109.35 448.58 111.72 449.01 114.29C449.44 116.86 449.83 119.41 450.19 121.94C450.55 124.47 450.73 126.81 450.73 128.95C450.73 133.23 449.77 136.28 447.84 138.1C445.91 139.92 443.24 140.83 439.81 140.83C436.38 140.83 433.74 139.94 431.67 138.15C429.6 136.37 428.17 133.44 427.39 129.37C426.96 126.59 426.51 123.2 426.05 119.2C425.59 115.2 425.23 111.06 424.98 106.78C424.73 102.5 424.6 98.68 424.6 95.32V95.36H424.59Z" fill="#1E021E"/>
<path d="M128.17 95.2C127.9 95.2 127.54 95.12 127.09 94.98C126.64 94.83 126.19 94.64 125.75 94.4C125.21 94.12 124.79 93.84 124.47 93.56C124.15 93.28 124 92.97 124 92.63C124 92.17 124.17 91.81 124.51 91.53C124.85 91.25 125.26 91.12 125.75 91.12C126.21 91.12 126.69 91.34 127.21 91.78C127.72 92.22 128.17 92.82 128.55 93.58L128.15 93.79C128.7 92.81 129.26 92.1 129.82 91.66C130.38 91.22 130.87 91 131.28 91C131.64 91 131.94 91.11 132.17 91.34C132.4 91.57 132.51 91.85 132.51 92.18C132.51 92.54 132.34 92.88 132.01 93.2C131.68 93.52 131.25 93.85 130.73 94.19C130.27 94.47 129.82 94.71 129.37 94.91C128.92 95.11 128.52 95.21 128.17 95.21V95.2Z" fill="#1E021E"/>
</svg>
