<svg width="103" height="90" viewBox="0 0 103 90" fill="none" xmlns="http://www.w3.org/2000/svg">
<g clip-path="url(#clip0_56_48)">
<path d="M74.5327 2.74219C75.5518 2.38616 76.1968 2.48316 76.6128 2.73633C76.9522 2.94287 77.2087 3.28485 77.2964 4.0752C77.3911 4.92929 77.2375 6.01959 76.9302 7.16016C74.0442 17.8406 68.7018 27.8695 61.2339 36.5889L64.7817 40.0938C73.5323 32.4115 82.5629 24.9893 93.6499 23.8789C95.8945 23.6544 97.6565 23.8722 98.7017 24.5879L98.9009 24.7383C99.8601 25.5301 100.193 27.2458 99.3442 28.8867C98.4589 30.5986 96.6729 32.0339 94.3501 33.4932C85.6458 38.9327 75.3255 41.9166 64.7056 42.04L64.5376 47.0312C75.4698 47.896 85.8711 51.6014 94.4917 57.6758C95.96 58.7144 97.2926 60.035 98.0122 61.2969C98.7136 62.5269 98.6285 63.2523 98.271 63.7939C98.0183 64.1765 97.544 64.5647 96.7231 64.8984C95.9034 65.2316 94.8951 65.4451 93.814 65.5703L93.8081 65.5713C81.9572 66.973 70.1021 60.7143 63.0581 51.6045C62.142 50.2067 61.2209 48.8356 60.313 47.4951L56.0728 50.1396C56.9157 51.6126 57.8706 53.0446 58.9224 54.4238C64.5992 63.1145 69.3053 71.8516 69.019 81.0967V81.0977C68.9275 84.0915 67.9644 86.3033 66.2319 87.0303H66.231C64.8198 87.6236 62.725 87.2351 61.1509 86.0264C59.5841 84.8233 58.5152 83.0307 57.5005 80.8428H57.5015C53.6156 72.3898 52.313 63.1843 53.6821 54.1729C53.9182 52.9669 54.1453 51.77 54.3677 50.5869L49.4741 49.5635C49.1931 50.7824 48.9601 52.007 48.769 53.2344C47.0032 62.2176 44.8301 70.8072 39.561 77.9053C38.5669 79.2416 37.2526 80.5006 35.8833 81.2588C34.528 82.0092 33.3548 82.1564 32.3472 81.7871H32.3462C31.3274 81.4137 30.6896 80.6101 30.3784 79.2217C30.0515 77.7624 30.1762 75.9194 30.603 74.2168C33.093 64.3791 38.7755 55.397 46.9692 48.4355L44.7993 45.1396C45.1584 45.2423 45.5175 45.3455 45.8755 45.4512L47.3774 40.6826C35.39 36.6658 23.784 31.6887 16.8892 22.9531L16.5649 22.5342C15.9802 21.7649 15.5584 20.9842 15.3979 20.3555C15.2501 19.7755 15.38 19.6297 15.4321 19.5684L15.4331 19.5664C15.5263 19.4566 15.7838 19.2567 16.4663 19.1543C17.1441 19.0526 17.9888 19.0891 18.8862 19.2207L18.897 19.2227C32.2464 21.122 42.6967 30.5395 52.688 40.1123L57.8657 45.0732L56.894 37.9688L56.8491 37.6387L60.2153 37.582C61.3343 25.1567 62.9305 12.8221 71.5483 4.65234V4.65137C72.4221 3.82256 73.5101 3.09953 74.5327 2.74219ZM4.36182 43.9775C9.31676 40.2114 16.8206 40.0938 24.3569 41.0088C30.7829 41.7887 37.1277 43.0326 43.3296 44.7275C31.9412 50.0976 18.2709 51.4939 5.84717 48.4863H5.84424C4.9236 48.2645 4.12848 48.0182 3.51025 47.7031C2.89377 47.3889 2.65715 47.109 2.56494 46.9248L2.56396 46.9238L2.53564 46.8584C2.4735 46.6907 2.44913 46.4023 2.70459 45.877C3.00943 45.2501 3.60832 44.5504 4.36182 43.9775ZM42.3774 5.98633C42.4109 5.96751 42.6041 5.87784 43.1655 6.12695C43.7707 6.39549 44.45 6.92506 45.0005 7.53418C51.6401 14.8794 53.5571 24.7666 54.9097 35.0518C46.4171 27.0899 40.2479 17.1336 41.9058 7.3252C41.9897 6.82955 42.089 6.47658 42.2046 6.23438C42.3045 6.02507 42.3716 5.98924 42.3774 5.98633Z" fill="#F0B9E5" stroke="#202020" stroke-width="5"/>
<path d="M51.1636 34.1757C58.0904 34.1757 63.271 39.2051 63.271 44.8983C63.2707 50.5914 58.0902 55.6199 51.1636 55.62C44.2369 55.62 39.0564 50.5914 39.0562 44.8983C39.0562 39.2051 44.2367 34.1757 51.1636 34.1757Z" fill="#90EE90" stroke="#202020" stroke-width="5"/>
</g>
<defs>
<clipPath id="clip0_56_48">
<rect width="102.326" height="89.7959" fill="white"/>
</clipPath>
</defs>
</svg>
