<svg width="325" height="889" viewBox="0 0 325 889" fill="none" xmlns="http://www.w3.org/2000/svg">
<g clip-path="url(#clip0_56_41)">
<path d="M470.049 390.265C566.496 418.681 617.668 527.088 587.494 636.281L587.494 636.282C587.119 637.623 586.483 638.887 585.625 639.994C584.767 641.101 583.709 642.026 582.519 642.714C581.329 643.403 580.034 643.841 578.714 644.009C577.395 644.177 576.074 644.071 574.832 643.702L574.825 643.699L565.71 641.018C563.383 640.331 561.43 638.751 560.267 636.571C559.1 634.387 558.816 631.763 559.502 629.238L559.501 629.238C584.161 538.432 542.154 447.549 461.357 422.517L459.441 421.937C379.993 398.534 292.184 446.707 254.614 530.051L254.611 530.058C252.511 534.755 248.816 538.571 244.26 540.785C239.716 542.993 234.64 543.452 230.002 542.105L229.707 542.01L229.676 542.001C228.435 541.637 227.29 541.016 226.313 540.172C225.335 539.328 224.542 538.276 223.987 537.077C223.432 535.877 223.127 534.554 223.097 533.189C223.067 531.826 223.311 530.453 223.817 529.155C265.56 423.366 373.594 361.847 470.049 390.265Z" fill="#FFB2EF" stroke="#202020" stroke-width="5"/>
<path d="M480.866 337.304C539.033 354.464 585.361 395.677 611.351 453.505L611.351 453.506C635.577 507.47 639.326 569.801 622.169 630.435L621.759 631.867C621.407 633.077 620.817 634.213 620.026 635.207C619.235 636.202 618.261 637.032 617.165 637.649C616.07 638.265 614.876 638.656 613.656 638.801C612.437 638.947 611.215 638.845 610.063 638.503L610.06 638.503L599.274 635.32L598.858 635.187C596.832 634.484 595.143 633.059 594.113 631.149C593.082 629.236 592.788 626.974 593.294 624.779L593.405 624.341C625.303 512.189 572.016 398.987 470.273 368.98C368.532 338.974 255.937 403.233 213.87 512.379C212.989 514.642 211.291 516.506 209.145 517.592C207.001 518.677 204.578 518.904 202.372 518.25L202.369 518.249L191.583 515.066L191.581 515.066C190.428 514.727 189.364 514.153 188.453 513.38C187.542 512.606 186.801 511.646 186.277 510.553C185.754 509.46 185.46 508.257 185.416 507.016C185.371 505.778 185.577 504.529 186.023 503.347C208.732 443.747 249.966 394.074 303.087 362.582L303.088 362.583C359.576 329.078 422.698 320.143 480.866 337.304Z" fill="#90EE90" stroke="#202020" stroke-width="5"/>
<path d="M493.123 285.184C559.997 304.905 613.278 352.301 643.117 418.757L643.118 418.757C671.159 481.198 675.323 553.413 655.124 623.559L655.123 623.562C654.705 625.019 653.999 626.388 653.052 627.586C652.105 628.785 650.936 629.785 649.62 630.531C648.303 631.275 646.867 631.75 645.398 631.928C643.929 632.107 642.455 631.986 641.065 631.576L641.064 631.576L634.596 629.673L634.104 629.515C631.683 628.674 629.667 626.967 628.442 624.686C627.216 622.402 626.872 619.705 627.48 617.093L627.614 616.572C645.379 554.464 641.661 490.468 616.744 435.027C590.158 375.854 542.633 333.494 482.836 315.854C423.04 298.214 358.262 307.45 300.461 341.733C246.309 373.85 204.321 424.364 181.108 484.867C180.066 487.556 178.051 489.774 175.5 491.071C172.949 492.367 170.059 492.645 167.425 491.868L160.961 489.959C159.571 489.549 158.29 488.857 157.194 487.922C156.097 486.987 155.207 485.828 154.58 484.511C153.954 483.194 153.603 481.746 153.555 480.255C153.506 478.764 153.761 477.262 154.304 475.841L154.305 475.84C180.415 407.436 227.767 350.415 288.773 314.237C353.686 275.742 426.249 265.463 493.123 285.184Z" fill="#FFB2EF" stroke="#202020" stroke-width="5"/>
</g>
<defs>
<clipPath id="clip0_56_41">
<rect width="565.945" height="378.455" fill="white" transform="translate(238.212 174.118) rotate(18.7701)"/>
</clipPath>
</defs>
</svg>
